/* XPM */
static char * window_img_48_48_xpm[] = {
"48 48 204 2",
"  	c None",
". 	c #2BF0FF",
"+ 	c #28EFFF",
"@ 	c #3EEAFC",
"# 	c #3CE9FB",
"$ 	c #3CE5FE",
"% 	c #3AE3FD",
"& 	c #34E0F9",
"* 	c #30DEF7",
"= 	c #43DAF5",
"- 	c #2BD7F7",
"; 	c #29D6F6",
"> 	c #3ED3F4",
", 	c #23D0F7",
"' 	c #1DCDF4",
") 	c #36CAF2",
"! 	c #32C8F0",
"~ 	c #2EC5EE",
"{ 	c #2FC2F1",
"] 	c #2AC0EF",
"^ 	c #26BEED",
"/ 	c #38B9EA",
"( 	c #21B9EE",
"_ 	c #34B4EB",
": 	c #2FB1E8",
"< 	c #2DB0E7",
"[ 	c #2AABE9",
"} 	c #25A9E7",
"| 	c #20A7E5",
"1 	c #34A4E2",
"2 	c #19A2E6",
"3 	c #309EE4",
"4 	c #2C9CE1",
"5 	c #2A9BE0",
"6 	c #40EBFD",
"7 	c #32DFF8",
"8 	c #32DBFB",
"9 	c #3ABAEB",
"0 	c #17B5EB",
"a 	c #31B2E9",
"b 	c #28AAE8",
"c 	c #38A6E5",
"d 	c #38E7F9",
"e 	c #38E2FC",
"f 	c #2ED8F9",
"g 	c #37CEF0",
"h 	c #34C9F1",
"i 	c #43C4EE",
"j 	c #28AEE4",
"k 	c #36A5E4",
"l 	c #3CCDF6",
"m 	c #30C7EF",
"n 	c #31C3F3",
"o 	c #28BFEE",
"p 	c #36B5EC",
"q 	c #42ECFF",
"r 	c #3AD0F2",
"s 	c #20CEF6",
"t 	c #38CBF3",
"u 	c #1CA3E7",
"v 	c #3AE8FA",
"w 	c #3DBDED",
"x 	c #33B3EA",
"y 	c #3EE6FF",
"z 	c #36E1FA",
"A 	c #1AB6EC",
"B 	c #23A8E6",
"C 	c #47DDF7",
"D 	c #30D9FA",
"E 	c #2AAFE5",
"F 	c #40D4F5",
"G 	c #33A3E1",
"H 	c #15A1E5",
"I 	c #39CFF1",
"J 	c #3ACCF5",
"K 	c #41C3ED",
"L 	c #2DC1F0",
"M 	c #23BAEF",
"N 	c #11A0E4",
"O 	c #41D5F6",
"P 	c #3EB7DB",
"Q 	c #21A6C9",
"R 	c #33A2C7",
"S 	c #30A0C5",
"T 	c #179FC8",
"U 	c #329EC9",
"V 	c #3AA3CF",
"W 	c #38ACDD",
"X 	c #239ED5",
"Y 	c #2486B8",
"Z 	c #2785BE",
"` 	c #2584BD",
" .	c #248ECC",
"..	c #1D80B9",
"+.	c #1789C7",
"@.	c #1F8CCA",
"#.	c #289ADF",
"$.	c #2383BC",
"%.	c #2182BB",
"&.	c #2599DE",
"*.	c #205A6A",
"=.	c #000200",
"-.	c #000407",
";.	c #001318",
">.	c #032F40",
",.	c #276C8D",
"'.	c #2A89BC",
").	c #2197DC",
"!.	c #0A3248",
"~.	c #0D3B57",
"{.	c #143950",
"].	c #07131D",
"^.	c #205981",
"/.	c #1D4F71",
"(.	c #1B5E73",
"_.	c #073B51",
":.	c #0C2431",
"<.	c #164A6C",
"[.	c #2B92D1",
"}.	c #266FA2",
"|.	c #113E5A",
"1.	c #011A27",
"2.	c #1F618E",
"3.	c #1A5E8B",
"4.	c #195D72",
"5.	c #10313D",
"6.	c #3393BF",
"7.	c #103849",
"8.	c #155576",
"9.	c #165E85",
"0.	c #0B2330",
"a.	c #2D93D2",
"b.	c #081118",
"c.	c #145279",
"d.	c #185C71",
"e.	c #0C2D3A",
"f.	c #3CAEE0",
"g.	c #114965",
"h.	c #02161F",
"i.	c #2591C9",
"j.	c #020D14",
"k.	c #184B6D",
"l.	c #0D1721",
"m.	c #226390",
"n.	c #155A6F",
"o.	c #0A2C39",
"p.	c #00070A",
"q.	c #2178AA",
"r.	c #052637",
"s.	c #125178",
"t.	c #167DB5",
"u.	c #1894D9",
"v.	c #136793",
"w.	c #13596E",
"x.	c #24ABE2",
"y.	c #2792CA",
"z.	c #236DA0",
"A.	c #245C84",
"B.	c #124769",
"C.	c #22586E",
"D.	c #092C38",
"E.	c #37A8E0",
"F.	c #1F77A9",
"G.	c #2F75A8",
"H.	c #0B1B29",
"I.	c #20566C",
"J.	c #122A37",
"K.	c #31A5DD",
"L.	c #123F5B",
"M.	c #0D2C3E",
"N.	c #071825",
"O.	c #268FCD",
"P.	c #071017",
"Q.	c #2991D0",
"R.	c #10556F",
"S.	c #082B37",
"T.	c #30A4DB",
"U.	c #104668",
"V.	c #1D8BC9",
"W.	c #1187C5",
"X.	c #11364D",
"Y.	c #15415D",
"Z.	c #041D2A",
"`.	c #012D3E",
" +	c #2986BF",
".+	c #194C6E",
"++	c #022335",
"@+	c #1070A2",
"#+	c #040E15",
"$+	c #0E546E",
"%+	c #083047",
"&+	c #184E6A",
"*+	c #1C4E70",
"=+	c #083955",
"-+	c #197EB6",
";+	c #2996C7",
">+	c #1C82B4",
",+	c #2D7FB2",
"'+	c #2B7EB1",
")+	c #2A7DB0",
"!+	c #117BB3",
"~+	c #0979B1",
"{+	c #1A8AC8",
"]+	c #31A2E0",
". . . . . . . + @ # $ % & * = - ; > , ' ) ! ~ { ] ^ / ( _ : < [ } | 1 2 3 4 5 5 5 5 5 5 5 5 5 5 ",
". . . . . . + 6 # $ % & 7 8 - ; > , ' ) ! ~ { ] ^ 9 ( 0 a < [ b c 1 2 3 4 5 5 5 5 5 5 5 5 5 5 5 ",
". . . . . + 6 # d e & 7 = f ; > , g ) h i { ] ^ 9 ( 0 a < j b | k 2 3 5 5 5 5 5 5 5 5 5 5 5 5 5 ",
". . . . + 6 # d % & 7 = f ; > , l ) h m n o ^ 9 ( p a < j b | k 2 3 4 5 5 5 5 5 5 5 5 5 5 5 5 5 ",
". . . q q # d % & 7 8 f ; > r s t h i n ] ^ 9 ( 0 a < j b | k u 3 4 5 5 5 5 5 5 5 5 5 5 5 5 5 5 ",
". . + q # v % & 7 8 f - > r s t h ~ n ] w 9 ( 0 x : j b | k u 3 4 5 5 5 5 5 5 5 5 5 5 5 5 5 5 5 ",
". q q # y % z 7 8 f ; > r s t h m n ] o 9 ( A x : j b B k u 3 4 5 5 5 5 5 5 5 5 5 5 5 5 5 5 5 5 ",
"q q # v % z & C D - > r s t h m n ] o 9 ( A x : E b B k u 3 4 5 5 5 5 5 5 5 5 5 5 5 5 5 5 5 5 5 ",
"q # v % z & C D - F > s t h m n ] o 9 ( A x : [ [ B c G H 3 5 5 5 5 5 5 5 5 5 5 5 5 5 5 5 5 5 5 ",
"# v % z & C D - F > I J h ! K ] o 9 ( A x : E [ B c G H 4 5 5 5 5 5 5 5 5 5 5 5 5 5 5 5 5 5 5 5 ",
"v % e & C D - F > I J h ! K L o 9 ( A x : E [ B c G H 3 5 5 5 5 5 5 5 5 5 5 5 5 5 5 5 5 5 5 5 5 ",
"$ e & C 8 - F > I J h ! K L o 9 / ( _ : E [ B c 1 3 3 5 5 5 5 5 5 5 5 5 5 5 5 5 5 5 5 5 5 5 5 5 ",
"e & C 8 - F > I J h ! K L o 9 M ( x : < [ } c G H 3 5 5 5 5 5 5 5 5 5 5 5 5 5 5 5 5 5 5 5 5 5 5 ",
"& * = - F > r J h ! K L o 9 M ( _ : < [ } c 1 2 N 5 5 5 5 5 5 5 5 5 5 5 5 5 5 5 5 5 5 5 5 5 5 5 ",
"C 8 f ; > r J h ! ~ L o 9 M ( _ a < [ } | u 2 N 4 5 5 5 5 5 5 5 5 5 5 5 5 5 5 5 5 5 5 5 5 5 5 5 ",
"= f ; > r ' ) ! ~ { o 9 / ( _ a < [ } | 1 2 N 4 5 5 5 5 5 5 5 5 5 5 5 5 5 5 5 5 5 5 5 5 5 5 5 5 ",
"f ; > r l ) ! i { ] w / ( 0 a < [ } | 1 2 N 4 5 5 5 5 5 5 5 5 5 5 5 5 5 5 5 5 5 5 5 5 5 5 5 5 5 ",
"O > r ' P Q R S S T U V W a < j b X Y Z ` 4 5 5 5 5 5  .....+.5 @.....Z 5 5 5 #.$.....%.&.5 5 5 ",
"> r l ) *.=.=.=.=.=.-.;.>.,.[ b B '.=.=.=.%.5 5 5 5 ).!.=.=.~.5 {.=.=.].5 5 5 ^.=.=.=./.&.5 5 5 ",
"r s ) h (.=.=.=.=.=.=.=.=.=._.| k 2 :.=.=.<.5 5 5 5 [.-.=.-.}.5 |.=.=.1.5 5 2.=.=.=.3.#.5 5 5 5 ",
"s ) h m 4.=.=.5./ p 6.7.=.=.=.8.u H 9.=.=.0.a.5 5 5 2.=.=.b.&.5 |.=.=.1.5 3.=.=.-.c.5 5 5 5 5 5 ",
"t h m n d.=.=.e.f.a : [ g.=.=.h.i.3 ..j.=.-...5 5 5 ].=.=.k.5 5 |.=.=.l.^.=.=.=.m.5 5 5 5 5 5 5 ",
"h m n L n.=.=.o.j : [ b '.p.=.-.q.5 5 r.=.=.s.5 5 t.=.=.=.u.5 5 |.=.=.=.-.=.-.v.#.5 5 5 5 5 5 5 ",
"m n L o w.=.=.o.x.E [ B y.].=.=.z.5 5 A.=.=.b.5 5 ~.=.=.!.5 5 5 |.=.=.=.=.=.B.5 5 5 5 5 5 5 5 5 ",
"n L o 9 C.=.=.D.E.[ B k i.].=.=.z.5 5 &.=.=.=.F.a.].=.=.G.5 5 5 |.=.=.=.=.=.H.Z 5 5 5 5 5 5 5 5 ",
"L o 9 / I.=.=.J.K.} c G ` p.=.-.G.5 5 5 L.=.=.M.G.-.=.N.O.5 5 5 |.=.=.p.b.=.=.P.Q.5 5 5 5 5 5 5 ",
"o 9 / A R.=.=.S.T.c G 2 U.=.=.].V.5 5 5 W.=.=.-.X.=.=.Y.#.5 5 5 |.=.=.Z.t.j.=.=.j.%.5 5 5 5 5 5 ",
"9 / ( x R.=.=.`.c G  +{.=.=.=..+5 5 5 5 &.++=.=.=.=.-.@+5 5 5 5 |.=.=.1.5 %.#+=.=.P.t.5 5 5 5 5 ",
"/ A _ : $+=.=.=.=.=.=.=.=.=.%+5 5 5 5 5 5 ^.=.=.=.=.j.5 5 5 5 5 |.=.=.1.5 5 W.b.=.=.p.+.5 5 5 5 ",
"( _ a E &+=.=.=.=.=.-.j.++^.5 #.5 5 5 5 5 ..p.=.=.=.*+5 5 5 5 5 =+=.=.].5 5 5 -+].=.=.=.z.5 5 5 ",
"_ a < [ ;+>+,+'+)+!+..W.a.5 5 5 5 5 5 5 5 )...~+~+q.a.5 5 5 5 5 W.~+~+..5 5 5 5 {+q.~+~+%.5 5 5 ",
"a < [ b | 1 ]+3 4 5 5 5 5 5 5 5 5 5 5 5 5 5 5 5 5 5 5 5 5 5 5 5 5 5 5 5 5 5 5 5 5 5 5 5 5 5 5 5 ",
": [ b | 1 ]+N 4 5 5 5 5 5 5 5 5 5 5 5 5 5 5 5 5 5 5 5 5 5 5 5 5 5 5 5 5 5 5 5 5 5 5 5 5 5 5 5 5 ",
"[ b | 1 ]+N 4 5 5 5 5 5 5 5 5 5 5 5 5 5 5 5 5 5 5 5 5 5 5 5 5 5 5 5 5 5 5 5 5 5 5 5 5 5 5 5 5 5 ",
"b | k ]+3 4 5 5 5 5 5 5 5 5 5 5 5 5 5 5 5 5 5 5 5 5 5 5 5 5 5 5 5 5 5 5 5 5 5 5 5 5 5 5 5 5 5 5 ",
"| k ]+3 3 5 5 5 5 5 5 5 5 5 5 5 5 5 5 5 5 5 5 5 5 5 5 5 5 5 5 5 5 5 5 5 5 5 5 5 5 5 5 5 5 5 5 5 ",
"c ]+H 3 5 5 5 5 5 5 5 5 5 5 5 5 5 5 5 5 5 5 5 5 5 5 5 5 5 5 5 5 5 5 5 5 5 5 5 5 5 5 5 5 5 5 5 5 ",
"G H 3 5 5 5 5 5 5 5 5 5 5 5 5 5 5 5 5 5 5 5 5 5 5 5 5 5 5 5 5 5 5 5 5 5 5 5 5 5 5 5 5 5 5 5 5 5 ",
"H 3 5 5 5 5 5 5 5 5 5 5 5 5 5 5 5 5 5 5 5 5 5 5 5 5 5 5 5 5 5 5 5 5 5 5 5 5 5 5 5 5 5 5 5 5 5 5 ",
"3 5 5 5 5 5 5 5 5 5 5 5 5 5 5 5 5 5 5 5 5 5 5 5 5 5 5 5 5 5 5 5 5 5 5 5 5 5 5 5 5 5 5 5 5 5 5 5 ",
"5 5 5 5 5 5 5 5 5 5 5 5 5 5 5 5 5 5 5 5 5 5 5 5 5 5 5 5 5 5 5 5 5 5 5 5 5 5 5 5 5 5 5 5 5 5 5 5 ",
"5 5 5 5 5 5 5 5 5 5 5 5 5 5 5 5 5 5 5 5 5 5 5 5 5 5 5 5 5 5 5 5 5 5 5 5 5 5 5 5 5 5 5 5 5 5 5 5 ",
"5 5 5 5 5 5 5 5 5 5 5 5 5 5 5 5 5 5 5 5 5 5 5 5 5 5 5 5 5 5 5 5 5 5 5 5 5 5 5 5 5 5 5 5 5 5 5 5 ",
"5 5 5 5 5 5 5 5 5 5 5 5 5 5 5 5 5 5 5 5 5 5 5 5 5 5 5 5 5 5 5 5 5 5 5 5 5 5 5 5 5 5 5 5 5 5 5 5 ",
"5 5 5 5 5 5 5 5 5 5 5 5 5 5 5 5 5 5 5 5 5 5 5 5 5 5 5 5 5 5 5 5 5 5 5 5 5 5 5 5 5 5 5 5 5 5 5 5 ",
"5 5 5 5 5 5 5 5 5 5 5 5 5 5 5 5 5 5 5 5 5 5 5 5 5 5 5 5 5 5 5 5 5 5 5 5 5 5 5 5 5 5 5 5 5 5 5 5 ",
"5 5 5 5 5 5 5 5 5 5 5 5 5 5 5 5 5 5 5 5 5 5 5 5 5 5 5 5 5 5 5 5 5 5 5 5 5 5 5 5 5 5 5 5 5 5 5 5 ",
"5 5 5 5 5 5 5 5 5 5 5 5 5 5 5 5 5 5 5 5 5 5 5 5 5 5 5 5 5 5 5 5 5 5 5 5 5 5 5 5 5 5 5 5 5 5 5 5 "};
